<svg id="Layer_1" data-name="Layer 1" xmlns="http://www.w3.org/2000/svg" viewBox="0 0 216 155.53"><path d="M156.31,23q4.5,0,6.28,2.73a13.28,13.28,0,0,1,1.77,7.32,48.72,48.72,0,0,1-.43,5.62q-.44,3.55-1,7.45t-.95,7.1a39.17,39.17,0,0,0-.44,4.67,2.66,2.66,0,0,0,.44,1.82,1.21,1.21,0,0,0,.86.43c.69,0,1.39-.49,2.08-1.47a19.66,19.66,0,0,0,2.16-5.37l4.68,1.39a21.53,21.53,0,0,1-4,8.61,14.2,14.2,0,0,1-3.94,3.51,10,10,0,0,1-5.24,1.38q-4.77,0-6.54-2.59a12.64,12.64,0,0,1-1.77-7.19,48.8,48.8,0,0,1,.43-6q.43-3.46,1-7.1c.37-2.43.7-4.69,1-6.8a44.25,44.25,0,0,0,.32-5.56,30.69,30.69,0,0,0-1.24-9.17C151.51,22.72,154.34,23,156.31,23Zm3-20.9A5.79,5.79,0,0,1,164,4.18a6.87,6.87,0,0,1,1.6,5.1,7.29,7.29,0,0,1-2,5,6.23,6.23,0,0,1-4.76,2,6,6,0,0,1-4.72-2,7,7,0,0,1-1.69-5,7.6,7.6,0,0,1,2.25-5.1A6.46,6.46,0,0,1,159.34,2.1ZM118.48,67.24c-.12-1.21-.19-2.06-.22-2.55s0-1,0-1.6c0-1.21.07-2.67.22-4.37s.33-3.54.56-5.5.46-3.9.69-5.8q.44-3.12.82-5.93c.26-1.88.47-3.54.61-5s.22-2.51.22-3.21a2.88,2.88,0,0,0-.39-1.86,1.17,1.17,0,0,0-.82-.39c-.64,0-1.3.49-2,1.47A19.81,19.81,0,0,0,116,37.89l-4.76-1.38c.29-1.22.69-2.6,1.21-4.16a19.52,19.52,0,0,1,2.16-4.46,12.68,12.68,0,0,1,3.38-3.5A8.23,8.23,0,0,1,122.81,23a8.34,8.34,0,0,1,5,1.64q2.25,1.65,2.25,6.24a30.67,30.67,0,0,1-.21,3.29c-.15,1.27-.37,2.74-.65,4.42h.08a39,39,0,0,1,4.81-9.92,14.1,14.1,0,0,1,4.89-4.5A10.42,10.42,0,0,1,143.5,23a7.58,7.58,0,0,1,5.28,1.78,6.1,6.1,0,0,1,2,4.8,6,6,0,0,1-1.61,4.07,5.33,5.33,0,0,1-4.2,1.82,5.18,5.18,0,0,1-3.37-1.21A3.8,3.8,0,0,1,140.21,31c-1-.12-2,.44-3,1.69a20.47,20.47,0,0,0-2.85,5.1A59.91,59.91,0,0,0,131.94,45a75.36,75.36,0,0,0-1.73,8.14,51.52,51.52,0,0,0-.65,7.88c0,.75,0,1.8.09,3.16s.11,2.38.17,3.07Zm61,1a11.4,11.4,0,0,1-7.18-2.2A13,13,0,0,1,168,60.06a23.83,23.83,0,0,1-1.39-8.4,40,40,0,0,1,2.55-14.72,21.92,21.92,0,0,1,7.88-10.22Q182.4,23,190.63,23c.4,0,1.1,0,2.08,0s1.67.08,2.08.13c.29-2.65.5-4.76.65-6.32s.27-2.8.39-3.72.23-1.7.34-2.34c-.92.06-2,.1-3.24.13s-2.18.08-2.82.13l.35-6.58A43.46,43.46,0,0,0,197.21,4a23.23,23.23,0,0,0,4.29-1,8.12,8.12,0,0,0,2.21-1.12h4.67q-.78,6.92-1.6,13.85t-1.6,13.85q-.62,5.89-1.3,11.34t-1.13,9.79q-.44,4.32-.43,6.92a3.26,3.26,0,0,0,.43,2,1.2,1.2,0,0,0,.87.47c.63,0,1.3-.49,2-1.47a19.66,19.66,0,0,0,2.16-5.37l4.77,1.39a26.84,26.84,0,0,1-1.21,4.15,22,22,0,0,1-2.26,4.46,12.18,12.18,0,0,1-3.42,3.51,8.47,8.47,0,0,1-4.89,1.38,7.57,7.57,0,0,1-4.85-1.64c-1.38-1.1-2.07-3.17-2.07-6.23,0-1.16,0-2.07.08-2.73s.15-1.49.26-2.47h-.08a28.38,28.38,0,0,1-4.59,8,15,15,0,0,1-5.11,4A12.43,12.43,0,0,1,179.46,68.19Zm3.21-7.87a5.08,5.08,0,0,0,3.94-2.17,21.13,21.13,0,0,0,3.2-6,61.52,61.52,0,0,0,2.47-8.88q.6-3.12,1-6.62t.78-7.23a9.57,9.57,0,0,0-2.17-.48,19.89,19.89,0,0,0-2.42-.22,7.4,7.4,0,0,0-4.94,1.69,12.26,12.26,0,0,0-3.2,4.38,27.34,27.34,0,0,0-1.86,5.8,44.43,44.43,0,0,0-.87,6q-.21,2.91-.21,5a14.31,14.31,0,0,0,1.16,6.58A3.48,3.48,0,0,0,182.67,60.32ZM16,23q4.5,0,6.28,2.73A13.28,13.28,0,0,1,24,33.05a48.72,48.72,0,0,1-.43,5.62q-.43,3.55-.95,7.45l-1,7.1a38.62,38.62,0,0,0-.43,4.67,2.67,2.67,0,0,0,.43,1.82,1.25,1.25,0,0,0,.87.43c.69,0,1.38-.49,2.08-1.47a19.66,19.66,0,0,0,2.16-5.37l4.68,1.39a20.2,20.2,0,0,1-1.35,4.15,19.76,19.76,0,0,1-2.64,4.46,14.06,14.06,0,0,1-3.94,3.51,9.94,9.94,0,0,1-5.23,1.38q-4.77,0-6.54-2.59A12.64,12.64,0,0,1,10,58.41a48.8,48.8,0,0,1,.43-6q.43-3.46,1-7.1c.38-2.43.71-4.69,1-6.8a39.51,39.51,0,0,0,.43-5.24c0-1-.14-1.6-.43-1.86a1.4,1.4,0,0,0-1-.39c-.64,0-1.3.49-2,1.47a19.42,19.42,0,0,0-2.17,5.37L2.62,36.51A19.37,19.37,0,0,1,4,32.35a20.41,20.41,0,0,1,2.73-4.46,14.78,14.78,0,0,1,4-3.5A9.89,9.89,0,0,1,16,23ZM19,2.1a5.79,5.79,0,0,1,4.63,2.08,6.91,6.91,0,0,1,1.6,5.1,7.29,7.29,0,0,1-2,5,6.25,6.25,0,0,1-4.76,2,6,6,0,0,1-4.72-2,7,7,0,0,1-1.69-5,7.6,7.6,0,0,1,2.25-5.1A6.46,6.46,0,0,1,19,2.1ZM64.37,68.19q-4.77,0-6.45-2.59a13.07,13.07,0,0,1-1.69-7.19,55.82,55.82,0,0,1,.35-5.84q.35-3.26.73-6.63t.74-6.36a44.93,44.93,0,0,0,.35-5,7.33,7.33,0,0,0-.26-2.12,2.16,2.16,0,0,0-.78-1.17A2.49,2.49,0,0,0,56,31a4.61,4.61,0,0,0-3.25,1.9A22.71,22.71,0,0,0,49.48,38a50.85,50.85,0,0,0-2.77,7.19,67.94,67.94,0,0,0-2,8A44.12,44.12,0,0,0,44,61c0,.75,0,1.8.09,3.16s.11,2.38.17,3.07H33.11q-.16-1.81-.21-2.55c0-.49,0-1,0-1.6,0-1.21.08-2.64.22-4.29s.33-3.43.56-5.37.46-3.85.7-5.75c.17-1.56.36-3.08.56-4.55s.39-2.86.56-4.16.31-2.43.39-3.42S36,33.82,36,33.3a2.88,2.88,0,0,0-.39-1.86,1.15,1.15,0,0,0-.82-.39c-.64,0-1.3.49-2,1.47a19.42,19.42,0,0,0-2.17,5.37l-4.76-1.38c.29-1.22.69-2.6,1.21-4.16a19.15,19.15,0,0,1,2.17-4.46,12.65,12.65,0,0,1,3.37-3.5A8.26,8.26,0,0,1,37.44,23a9.06,9.06,0,0,1,3.55.69,5.86,5.86,0,0,1,2.69,2.38,9.26,9.26,0,0,1,1,4.81,16.16,16.16,0,0,1-.18,2.68c-.11.7-.23,1.53-.34,2.51h.08a28.72,28.72,0,0,1,4.55-8,14,14,0,0,1,5.11-3.94A13.53,13.53,0,0,1,59.09,23a9.94,9.94,0,0,1,6,1.64,9.72,9.72,0,0,1,3.34,4.64,20.73,20.73,0,0,1,1.08,7A52.76,52.76,0,0,1,69,43.26q-.52,3.81-1.08,7.62a47.68,47.68,0,0,0-.57,7,2.66,2.66,0,0,0,.44,1.82,1.21,1.21,0,0,0,.86.43c.64,0,1.3-.49,2-1.47a19.29,19.29,0,0,0,2.17-5.37l4.67,1.39a20.73,20.73,0,0,1-1.34,4.15,19.76,19.76,0,0,1-2.64,4.46,14.48,14.48,0,0,1-3.9,3.51A9.72,9.72,0,0,1,64.37,68.19ZM85.62,90.71a27.08,27.08,0,0,1-5.8-.57,14.55,14.55,0,0,1-4.46-1.68,8.05,8.05,0,0,1-2.86-2.82,7.49,7.49,0,0,1-1-3.85A7.36,7.36,0,0,1,72.11,79,6.28,6.28,0,0,1,74,76.51a5,5,0,0,1,3.33-1,5.47,5.47,0,0,1,3.9,1.47,5.21,5.21,0,0,1,1.56,4,6.46,6.46,0,0,1-.52,2.6,3.51,3.51,0,0,0,1.82,1A8,8,0,0,0,86.4,85,7.16,7.16,0,0,0,91.76,83a11.9,11.9,0,0,0,2.82-5.32A56.73,56.73,0,0,0,96,70.1q.6-4.59,1.25-8A68.19,68.19,0,0,1,99,55.3h-.09a36.73,36.73,0,0,1-3.37,6.31,17.52,17.52,0,0,1-3.6,4,12.18,12.18,0,0,1-3.81,2,13.26,13.26,0,0,1-3.94.6,11,11,0,0,1-5.84-1.68,12.07,12.07,0,0,1-4.42-5.2,20.49,20.49,0,0,1-1.68-8.87,43.51,43.51,0,0,1,1.42-11.3,27.25,27.25,0,0,1,4.51-9.4A21.53,21.53,0,0,1,86,25.34,25.5,25.5,0,0,1,97.3,23a48.94,48.94,0,0,1,6.11.48,60.46,60.46,0,0,1,7.14,1.34c-.12,2.08-.27,4.78-.48,8.09s-.43,6.89-.69,10.7-.53,7.49-.82,11-.55,6.59-.78,9.13A50.84,50.84,0,0,1,104.71,78a20.4,20.4,0,0,1-7,9.39Q93.07,90.7,85.62,90.71Zm2.07-30.22a4.66,4.66,0,0,0,3.55-2,19.53,19.53,0,0,0,3-5.28,58.26,58.26,0,0,0,2.38-7.44q1-4.12,1.73-8.4a72.8,72.8,0,0,0,.87-8.19,11.3,11.3,0,0,0-1.69-.34,15,15,0,0,0-2.29-.18,8.33,8.33,0,0,0-5.11,1.61A11.23,11.23,0,0,0,86.61,35a30.49,30.49,0,0,0-2,7.58A72.28,72.28,0,0,0,84,52.87a15.3,15.3,0,0,0,.48,4.07,6,6,0,0,0,1.34,2.64A2.58,2.58,0,0,0,87.69,60.49Zm28,69.55a322.06,322.06,0,0,0-49.3-15.93,139.09,139.09,0,0,0-25.73-3.56,64.72,64.72,0,0,0-13,.82,31.33,31.33,0,0,0-12.29,4.69,19.83,19.83,0,0,0-7.82,10.65,26.7,26.7,0,0,0-1.14,6.56,24.91,24.91,0,0,0,.4,6.66,14.5,14.5,0,0,0,2.8,6.22,13.59,13.59,0,0,0,5.52,4.06c4.25,1.73,8.8,1.86,13.16,1.62a83.53,83.53,0,0,0,12.94-2c4.25-1,8.43-2.13,12.58-3.42,8.28-2.57,16.41-5.57,24.47-8.72,16.11-6.32,31.93-13.25,47.84-19.95,8-3.34,15.92-6.64,24-9.72a231.79,231.79,0,0,1,24.41-8.1,69.82,69.82,0,0,1,12.44-2.2,25.18,25.18,0,0,1,6,.25,9.09,9.09,0,0,1,4.89,2.26c2.46,2.35,2.43,6.85,1.63,10.65a12.61,12.61,0,0,1-2.36,5.14,12.29,12.29,0,0,1-4.41,3.51c-3.5,1.74-7.67,2.31-11.82,2.43a78.88,78.88,0,0,1-12.61-.83,214.55,214.55,0,0,1-25.09-5.31c-16.61-4.43-33-9.83-49.5-15-8.25-2.57-16.53-5.1-24.89-7.42s-16.8-4.44-25.43-6a114.22,114.22,0,0,0-13.13-1.57,50.71,50.71,0,0,0-13.56.85A24.13,24.13,0,0,0,9.89,89.3a16.55,16.55,0,0,0-5.56,5.08,18.08,18.08,0,0,0-2.76,6.92,28.06,28.06,0,0,0-.35,7.13,23.41,23.41,0,0,0,1.69,7.06,21.63,21.63,0,0,0,4,6.18,26.07,26.07,0,0,0,5.65,4.5,34.43,34.43,0,0,0,6.39,2.88,53.69,53.69,0,0,0,13.37,2.54,86.44,86.44,0,0,0,13.37-.11,137.25,137.25,0,0,0,26-4.82,178.78,178.78,0,0,0,24.73-9c4-1.79,8-3.76,11.78-5.81l.71-.38.66-.32,1.44-.7,2.9-1.4,5.83-2.75c7.78-3.63,15.64-7.13,23.56-10.43s15.9-6.44,24-9.17c4-1.37,8.08-2.64,12.15-3.72a83.47,83.47,0,0,1,12.14-2.4l-.74-7.11a90.1,90.1,0,0,0-13.23,2.71c-4.27,1.17-8.45,2.52-12.58,4-8.27,2.88-16.34,6.14-24.33,9.54s-15.89,7-23.72,10.73l-5.86,2.83-2.93,1.44-1.46.73-.79.4-.71.39c-3.79,2.09-7.52,4-11.39,5.78a172.58,172.58,0,0,1-23.78,9,131.59,131.59,0,0,1-24.81,4.91,83.23,83.23,0,0,1-12.52.24,48,48,0,0,1-12-2.13,23.48,23.48,0,0,1-9.91-5.85,16.13,16.13,0,0,1-3.05-4.62A18.61,18.61,0,0,1,6.3,108c-.32-3.87.2-7.9,2.17-10.81s5.39-4.75,9.24-5.64a46.09,46.09,0,0,1,12.21-.83,110.27,110.27,0,0,1,12.59,1.43c8.39,1.4,16.73,3.43,25,5.66s16.55,4.7,24.8,7.2c16.51,5,33,10.3,49.78,14.65a217.42,217.42,0,0,0,25.6,5.23,84.14,84.14,0,0,0,13.22.76,32.17,32.17,0,0,0,13.32-2.9,15.7,15.7,0,0,0,8.55-11.09,22.76,22.76,0,0,0,.43-7,13.21,13.21,0,0,0-.91-3.61,9.65,9.65,0,0,0-2.17-3.21,12.46,12.46,0,0,0-6.68-3.13,28.32,28.32,0,0,0-6.86-.24,72.83,72.83,0,0,0-13,2.39,238.89,238.89,0,0,0-24.68,8.41c-8.06,3.17-16,6.54-24,9.95-15.87,6.84-31.63,13.89-47.63,20.31-8,3.2-16.05,6.25-24.24,8.87-4.1,1.3-8.22,2.49-12.39,3.47a82.55,82.55,0,0,1-12.62,2c-4.2.27-8.53.14-12.34-1.38A11.85,11.85,0,0,1,10.92,145a12.65,12.65,0,0,1-2.5-5.46A23.93,23.93,0,0,1,8,133.35a25.18,25.18,0,0,1,1-6.17,18.36,18.36,0,0,1,7.13-9.9,29.86,29.86,0,0,1,11.69-4.57,63.29,63.29,0,0,1,12.76-.92,137.91,137.91,0,0,1,25.55,3.28,322.55,322.55,0,0,1,49.33,15.42,401.17,401.17,0,0,1,46.88,21.93A398.58,398.58,0,0,0,115.65,130Z"/></svg>